<svg width="27" height="24" viewBox="0 0 27 24" fill="none" xmlns="http://www.w3.org/2000/svg">
<path d="M26.9499 12.0028C26.9499 10.2174 24.7142 8.52515 21.2859 7.47635C22.0776 3.98297 21.7261 1.20264 20.1765 0.31217C19.801 0.101871 19.376 -0.00398397 18.9458 0.00561456V1.22959C19.1984 1.22959 19.4017 1.28012 19.5724 1.37332C20.3191 1.80227 20.6436 3.43274 20.391 5.53147C20.3303 6.04801 20.2315 6.59149 20.1102 7.14621C18.9622 6.86957 17.797 6.66962 16.6225 6.5477C15.9227 5.58232 15.1593 4.66473 14.3373 3.80106C16.1284 2.1369 17.8094 1.2251 18.9525 1.2251V0C17.4411 0 15.4636 1.07687 13.4637 2.94428C11.4649 1.08922 9.48636 0.0224582 7.97604 0.0224582V1.24643C9.11355 1.24643 10.8002 2.15375 12.5912 3.80667C11.822 4.61517 11.0528 5.53147 10.3218 6.5477C9.14481 6.66827 7.97756 6.87013 6.82843 7.15183C6.70698 6.62607 6.61142 6.09467 6.54209 5.55954C6.28382 3.45969 6.60272 1.82922 7.34497 1.39578C7.50891 1.29696 7.72339 1.25205 7.97604 1.25205V0.0280728C7.51565 0.0280728 7.0968 0.126889 6.73523 0.334628C5.19122 1.2251 4.84537 3.99869 5.64151 7.48196C2.22449 8.5375 0 10.223 0 12.0028C0 13.7882 2.23572 15.4805 5.66397 16.5281C4.87232 20.0226 5.22379 22.803 6.77341 23.6923C7.13049 23.9012 7.54821 24 8.00861 24C9.52005 24 11.4975 22.9231 13.4974 21.0557C15.4962 22.9119 17.4736 23.9775 18.9851 23.9775C19.4186 23.9867 19.8468 23.8805 20.2259 23.6699C21.7699 22.7805 22.1158 20.0069 21.3196 16.5237C24.7254 15.4749 26.9499 13.7826 26.9499 12.0028ZM19.7969 8.33875C19.5836 9.07297 19.3363 9.7969 19.0558 10.5082C18.5967 9.61522 18.0926 8.7461 17.5455 7.90418C18.3259 8.01984 19.0783 8.16245 19.7981 8.33875H19.7969ZM17.2816 14.1891C16.8703 14.9072 16.4286 15.6074 15.9577 16.2878C14.3095 16.4331 12.6519 16.435 11.0034 16.2935C10.0579 14.9428 9.23094 13.5129 8.53189 12.0197C9.22987 10.5229 10.0533 9.08796 10.9933 7.73013C12.6411 7.58456 14.2983 7.58231 15.9465 7.72339C16.4024 8.37692 16.8482 9.07538 17.276 9.81201C17.6937 10.5307 18.0733 11.2606 18.4191 11.9972C18.0694 12.7428 17.69 13.474 17.2816 14.1891ZM19.0558 13.4749C19.3523 14.2105 19.606 14.9471 19.8138 15.6613C19.0951 15.8376 18.336 15.9858 17.5511 16.1003C18.096 15.2507 18.5982 14.3745 19.0558 13.4749ZM13.4862 19.3365C12.9752 18.8088 12.4643 18.2215 11.959 17.5781C12.4531 17.6005 12.9584 17.6174 13.4693 17.6174C13.9859 17.6174 14.4968 17.6061 14.9965 17.5781C14.5024 18.2215 13.9915 18.8088 13.4862 19.3365ZM9.39877 16.1003C8.64164 15.9906 7.88999 15.846 7.14621 15.6669C7.34946 14.9583 7.60211 14.2273 7.88733 13.4974C8.11304 13.9353 8.34997 14.3755 8.60824 14.8157C8.86651 15.2548 9.12927 15.6837 9.39877 16.1003ZM13.4581 4.66907C13.969 5.19684 14.48 5.78412 14.9853 6.42755C14.4912 6.40509 13.9859 6.38825 13.4749 6.38825C12.9584 6.38825 12.4475 6.39948 11.9478 6.42755C12.4419 5.78412 12.9528 5.19684 13.4581 4.66907ZM9.39316 7.9053C8.8484 8.75303 8.34621 9.62736 7.88846 10.5251C7.60011 9.80915 7.34715 9.0795 7.13049 8.33875C7.84915 8.16806 8.60824 8.01984 9.39316 7.9053ZM4.42203 14.782C2.47714 13.9533 1.21948 12.8652 1.21948 12.0028C1.21948 11.1404 2.47714 10.0467 4.42203 9.2236C4.89365 9.02035 5.41019 8.83844 5.94357 8.66888C6.25687 9.74463 6.66897 10.8653 7.17878 12.014C6.69746 13.0945 6.29039 14.2065 5.96042 15.3423C5.43877 15.1808 4.92536 14.9938 4.42203 14.782ZM7.37753 22.6312C6.6308 22.2045 6.30627 20.5718 6.55893 18.4741C6.61957 17.9576 6.71838 17.413 6.83966 16.8583C7.91541 17.1222 9.0911 17.3254 10.3274 17.4579C11.0272 18.4233 11.7906 19.3409 12.6125 20.2046C10.8215 21.8687 9.1405 22.7805 7.99738 22.7805C7.78171 22.7829 7.5688 22.732 7.37753 22.6323V22.6312ZM20.4078 18.4461C20.6661 20.5448 20.3472 22.1764 19.6049 22.6098C19.441 22.7087 19.2265 22.7524 18.9738 22.7524C17.8363 22.7524 16.1497 21.8463 14.3587 20.1922C15.1772 19.3321 15.9355 18.4167 16.6281 17.4523C17.8051 17.3317 18.9723 17.1299 20.1215 16.8482C20.2484 17.4029 20.346 17.9352 20.4078 18.4461ZM22.5222 14.782C22.0506 14.9853 21.5341 15.1672 21.0007 15.3367C20.6649 14.1951 20.2522 13.0775 19.7655 11.9916C20.2708 10.8496 20.6762 9.73453 20.9839 8.66327C21.5072 8.82532 22.0224 9.01231 22.5279 9.2236C24.4727 10.0523 25.7304 11.1404 25.7304 12.0028C25.7248 12.8652 24.4671 13.9589 22.5222 14.782Z" fill="#FF6E65"/>
<path d="M13.4693 14.5136C14.1352 14.5136 14.7739 14.2491 15.2448 13.7782C15.7156 13.3073 15.9802 12.6687 15.9802 12.0028C15.9802 11.3369 15.7156 10.6982 15.2448 10.2273C14.7739 9.75648 14.1352 9.49194 13.4693 9.49194C12.8034 9.49194 12.1648 9.75648 11.6939 10.2273C11.223 10.6982 10.9585 11.3369 10.9585 12.0028C10.9585 12.6687 11.223 13.3073 11.6939 13.7782C12.1648 14.2491 12.8034 14.5136 13.4693 14.5136Z" fill="#FF6E65"/>
</svg>
