<svg width="32" height="31" viewBox="0 0 32 31" fill="none" xmlns="http://www.w3.org/2000/svg">
<mask id="path-1-outside-1_41_1122" maskUnits="userSpaceOnUse" x="0" y="-0.5" width="32" height="32" fill="black">
<rect fill="white" y="-0.5" width="32" height="32"/>
<path fill-rule="evenodd" clip-rule="evenodd" d="M16 1.86302C8.43125 1.86302 2.30375 8.22422 2.30375 16.058C2.30375 21.8101 5.6075 26.76 10.3625 28.9865C10.86 29.22 11.3463 29.1274 11.7263 28.83C11.9364 28.6592 12.1058 28.44 12.2212 28.1895C12.3365 27.939 12.3948 27.664 12.3912 27.3861V26.6426L10.695 26.4026C10.6824 26.4008 10.6699 26.3987 10.6575 26.3961C9.7225 26.2057 9.09125 25.8626 8.62875 25.3683C8.24 24.9522 8.0025 24.454 7.80125 24.0313L7.73125 23.884C7.54524 23.4791 7.34213 23.0831 7.1225 22.697C6.95375 22.4179 6.8225 22.2744 6.6925 22.1844C6.3625 21.9562 6.045 21.5688 6.045 21.0849C6.04387 20.9456 6.07245 20.8078 6.12866 20.6815C6.18487 20.5551 6.26731 20.4434 6.37 20.3545C6.56382 20.1943 6.80537 20.1103 7.0525 20.1171C7.33 20.1171 7.59125 20.2058 7.80875 20.3075C8.03125 20.4118 8.2525 20.5501 8.45875 20.6936C8.96125 21.0431 9.45625 21.4566 9.875 21.9666C10.3113 22.4962 10.62 22.8327 11.085 22.9018C11.4675 22.9592 11.8575 22.9605 12.1613 22.9461C12.2035 22.6952 12.2731 22.4501 12.3688 22.2157C11.9978 22.1254 11.6318 22.0139 11.2725 21.8818C10.455 21.5792 9.54375 21.1084 8.93125 20.3949C8.25875 19.6097 7.8425 18.9093 7.61 18.0901C7.38375 17.2919 7.34625 16.4271 7.34625 15.3628C7.34625 13.7324 8.0225 12.3589 8.53 11.6298C8.33502 10.9915 8.19488 10.3363 8.11125 9.67202C8.05586 9.25311 8.05628 8.82822 8.1125 8.40943C8.175 8.02727 8.33125 7.55771 8.7425 7.27467C9.13875 6.99946 9.60375 7.0112 9.96625 7.08163C10.3425 7.15598 10.7338 7.31902 11.0938 7.50554C11.68 7.80814 12.2625 8.21248 12.6988 8.55552C13.4513 8.32465 14.7825 8.02727 15.9862 7.99988H16.0138C17.2188 8.02727 18.49 8.32465 19.2238 8.55421C19.6613 8.21248 20.2425 7.80683 20.8275 7.50554C21.1875 7.31902 21.5775 7.15598 21.955 7.08163C22.3175 7.0112 22.7825 6.99946 23.18 7.27337C23.59 7.55771 23.7475 8.02727 23.8088 8.40943C23.8725 8.80725 23.8575 9.25203 23.8088 9.67202C23.7255 10.3362 23.5858 10.9914 23.3913 11.6298C23.8988 12.3602 24.575 13.7337 24.575 15.3628C24.575 16.4271 24.5375 17.2919 24.3125 18.0888C24.0787 18.9106 23.6625 19.6097 22.99 20.3949C22.3775 21.1084 21.4663 21.5792 20.6488 21.8818C20.2148 22.041 19.7714 22.1704 19.3212 22.2692C19.475 22.7544 19.53 23.147 19.53 23.3727V27.403C19.53 28.0161 19.8038 28.5391 20.1925 28.8443C20.57 29.143 21.055 29.2356 21.5525 29.0087C26.3525 26.8017 29.695 21.8388 29.695 16.0567C29.695 8.22422 23.57 1.86302 16 1.86302ZM12.845 24.2518C12.52 24.3 12.8438 24.2518 12.8438 24.2518H12.84L12.83 24.2544L12.7938 24.2596C12.6081 24.2824 12.4217 24.2985 12.235 24.3079C11.7901 24.3321 11.3441 24.3133 10.9025 24.2518C9.91375 24.1057 9.3125 23.3753 8.92375 22.9005L8.88625 22.8561C8.75915 22.7023 8.62261 22.5572 8.4775 22.4218C8.60625 22.6696 8.74 22.9461 8.88375 23.2435L8.89625 23.2696L8.96 23.4053C9.17875 23.8592 9.3225 24.1618 9.56125 24.4148C9.79375 24.6626 10.1563 24.9026 10.8888 25.0539L13.1313 25.3709C13.2879 25.393 13.4315 25.4737 13.5354 25.598C13.6393 25.7222 13.6965 25.8816 13.6962 26.0465V27.3861C13.6962 28.4295 13.2275 29.3595 12.5087 29.923C12.1314 30.2239 11.6825 30.4115 11.2104 30.4658C10.7384 30.52 10.2611 30.4388 9.83 30.2308C4.6275 27.7956 1 22.3736 1 16.058C1 7.45989 7.72125 0.5 16 0.5C24.2788 0.5 31 7.45989 31 16.058C31 22.4062 27.3263 27.8426 22.0788 30.2569C21.6473 30.4609 21.1709 30.5387 20.7004 30.482C20.2298 30.4252 19.7829 30.2361 19.4075 29.9347C19.0363 29.6365 18.7363 29.2526 18.5312 28.8131C18.326 28.3737 18.2212 27.8906 18.225 27.4017V23.3714C18.225 23.2801 18.1638 22.7531 17.8225 22.0449C17.7754 21.9467 17.7517 21.838 17.7533 21.7282C17.755 21.6184 17.782 21.5107 17.832 21.414C17.882 21.3174 17.9536 21.2348 18.0408 21.1732C18.1279 21.1116 18.228 21.0728 18.3325 21.0601C18.9733 20.9763 19.6037 20.8206 20.2125 20.5958C20.955 20.3218 21.6212 19.9462 22.0175 19.4845C22.6062 18.7984 22.9 18.2714 23.0613 17.7015C23.2288 17.1106 23.2712 16.4232 23.2712 15.3628C23.2712 13.8746 22.5213 12.6237 22.1763 12.2207C22.0979 12.1296 22.0445 12.0182 22.0217 11.8982C21.9988 11.7782 22.0073 11.6539 22.0462 11.5385C22.2684 10.8814 22.4255 10.2022 22.515 9.51159C22.555 9.1529 22.5575 8.85291 22.5225 8.63639C22.5147 8.55722 22.4917 8.4805 22.455 8.41074C22.3689 8.3952 22.2807 8.3992 22.1963 8.42248C21.9838 8.46422 21.7125 8.56856 21.405 8.72769C20.7925 9.04334 20.155 9.51028 19.76 9.84419C19.6729 9.91794 19.569 9.9669 19.4584 9.98633C19.3477 10.0058 19.2342 9.99499 19.1287 9.95506C18.1167 9.60961 17.0639 9.4108 16 9.3642C14.7413 9.3955 13.2887 9.76854 12.7925 9.95506C12.6871 9.99499 12.5735 10.0058 12.4629 9.98633C12.3523 9.9669 12.2484 9.91794 12.1613 9.84419C11.6504 9.41507 11.0993 9.04099 10.5162 8.72769C10.2659 8.5905 9.99949 8.4879 9.72375 8.42248C9.63971 8.39939 9.5519 8.39539 9.46625 8.41074C9.42951 8.48048 9.40656 8.55722 9.39875 8.63639C9.36375 8.85291 9.36625 9.1529 9.40625 9.51159C9.49633 10.202 9.65339 10.8812 9.875 11.5385C9.95375 11.7733 9.905 12.0342 9.745 12.2207C9.4 12.6237 8.65 13.8746 8.65 15.3628C8.65 16.4219 8.6925 17.1106 8.86 17.7015C9.0225 18.2714 9.315 18.7971 9.9025 19.4845C10.3 19.9462 10.965 20.3218 11.7088 20.5958C12.3172 20.8204 12.9471 20.9761 13.5875 21.0601C13.7193 21.0748 13.8436 21.1311 13.9439 21.2214C14.0443 21.3117 14.1159 21.4317 14.1493 21.5655C14.1827 21.6994 14.1763 21.8406 14.1308 21.9705C14.0854 22.1004 14.0031 22.2128 13.895 22.2927C13.6888 22.4466 13.5525 22.7231 13.4762 23.0427C13.4369 23.2072 13.4134 23.3754 13.4062 23.5448V23.5696C13.4078 23.735 13.3518 23.8953 13.2486 24.0208C13.1453 24.1463 13.0019 24.2284 12.845 24.2518V24.2518Z"/>
</mask>
<path fill-rule="evenodd" clip-rule="evenodd" d="M16 1.86302C8.43125 1.86302 2.30375 8.22422 2.30375 16.058C2.30375 21.8101 5.6075 26.76 10.3625 28.9865C10.86 29.22 11.3463 29.1274 11.7263 28.83C11.9364 28.6592 12.1058 28.44 12.2212 28.1895C12.3365 27.939 12.3948 27.664 12.3912 27.3861V26.6426L10.695 26.4026C10.6824 26.4008 10.6699 26.3987 10.6575 26.3961C9.7225 26.2057 9.09125 25.8626 8.62875 25.3683C8.24 24.9522 8.0025 24.454 7.80125 24.0313L7.73125 23.884C7.54524 23.4791 7.34213 23.0831 7.1225 22.697C6.95375 22.4179 6.8225 22.2744 6.6925 22.1844C6.3625 21.9562 6.045 21.5688 6.045 21.0849C6.04387 20.9456 6.07245 20.8078 6.12866 20.6815C6.18487 20.5551 6.26731 20.4434 6.37 20.3545C6.56382 20.1943 6.80537 20.1103 7.0525 20.1171C7.33 20.1171 7.59125 20.2058 7.80875 20.3075C8.03125 20.4118 8.2525 20.5501 8.45875 20.6936C8.96125 21.0431 9.45625 21.4566 9.875 21.9666C10.3113 22.4962 10.62 22.8327 11.085 22.9018C11.4675 22.9592 11.8575 22.9605 12.1613 22.9461C12.2035 22.6952 12.2731 22.4501 12.3688 22.2157C11.9978 22.1254 11.6318 22.0139 11.2725 21.8818C10.455 21.5792 9.54375 21.1084 8.93125 20.3949C8.25875 19.6097 7.8425 18.9093 7.61 18.0901C7.38375 17.2919 7.34625 16.4271 7.34625 15.3628C7.34625 13.7324 8.0225 12.3589 8.53 11.6298C8.33502 10.9915 8.19488 10.3363 8.11125 9.67202C8.05586 9.25311 8.05628 8.82822 8.1125 8.40943C8.175 8.02727 8.33125 7.55771 8.7425 7.27467C9.13875 6.99946 9.60375 7.0112 9.96625 7.08163C10.3425 7.15598 10.7338 7.31902 11.0938 7.50554C11.68 7.80814 12.2625 8.21248 12.6988 8.55552C13.4513 8.32465 14.7825 8.02727 15.9862 7.99988H16.0138C17.2188 8.02727 18.49 8.32465 19.2238 8.55421C19.6613 8.21248 20.2425 7.80683 20.8275 7.50554C21.1875 7.31902 21.5775 7.15598 21.955 7.08163C22.3175 7.0112 22.7825 6.99946 23.18 7.27337C23.59 7.55771 23.7475 8.02727 23.8088 8.40943C23.8725 8.80725 23.8575 9.25203 23.8088 9.67202C23.7255 10.3362 23.5858 10.9914 23.3913 11.6298C23.8988 12.3602 24.575 13.7337 24.575 15.3628C24.575 16.4271 24.5375 17.2919 24.3125 18.0888C24.0787 18.9106 23.6625 19.6097 22.99 20.3949C22.3775 21.1084 21.4663 21.5792 20.6488 21.8818C20.2148 22.041 19.7714 22.1704 19.3212 22.2692C19.475 22.7544 19.53 23.147 19.53 23.3727V27.403C19.53 28.0161 19.8038 28.5391 20.1925 28.8443C20.57 29.143 21.055 29.2356 21.5525 29.0087C26.3525 26.8017 29.695 21.8388 29.695 16.0567C29.695 8.22422 23.57 1.86302 16 1.86302ZM12.845 24.2518C12.52 24.3 12.8438 24.2518 12.8438 24.2518H12.84L12.83 24.2544L12.7938 24.2596C12.6081 24.2824 12.4217 24.2985 12.235 24.3079C11.7901 24.3321 11.3441 24.3133 10.9025 24.2518C9.91375 24.1057 9.3125 23.3753 8.92375 22.9005L8.88625 22.8561C8.75915 22.7023 8.62261 22.5572 8.4775 22.4218C8.60625 22.6696 8.74 22.9461 8.88375 23.2435L8.89625 23.2696L8.96 23.4053C9.17875 23.8592 9.3225 24.1618 9.56125 24.4148C9.79375 24.6626 10.1563 24.9026 10.8888 25.0539L13.1313 25.3709C13.2879 25.393 13.4315 25.4737 13.5354 25.598C13.6393 25.7222 13.6965 25.8816 13.6962 26.0465V27.3861C13.6962 28.4295 13.2275 29.3595 12.5087 29.923C12.1314 30.2239 11.6825 30.4115 11.2104 30.4658C10.7384 30.52 10.2611 30.4388 9.83 30.2308C4.6275 27.7956 1 22.3736 1 16.058C1 7.45989 7.72125 0.5 16 0.5C24.2788 0.5 31 7.45989 31 16.058C31 22.4062 27.3263 27.8426 22.0788 30.2569C21.6473 30.4609 21.1709 30.5387 20.7004 30.482C20.2298 30.4252 19.7829 30.2361 19.4075 29.9347C19.0363 29.6365 18.7363 29.2526 18.5312 28.8131C18.326 28.3737 18.2212 27.8906 18.225 27.4017V23.3714C18.225 23.2801 18.1638 22.7531 17.8225 22.0449C17.7754 21.9467 17.7517 21.838 17.7533 21.7282C17.755 21.6184 17.782 21.5107 17.832 21.414C17.882 21.3174 17.9536 21.2348 18.0408 21.1732C18.1279 21.1116 18.228 21.0728 18.3325 21.0601C18.9733 20.9763 19.6037 20.8206 20.2125 20.5958C20.955 20.3218 21.6212 19.9462 22.0175 19.4845C22.6062 18.7984 22.9 18.2714 23.0613 17.7015C23.2288 17.1106 23.2712 16.4232 23.2712 15.3628C23.2712 13.8746 22.5213 12.6237 22.1763 12.2207C22.0979 12.1296 22.0445 12.0182 22.0217 11.8982C21.9988 11.7782 22.0073 11.6539 22.0462 11.5385C22.2684 10.8814 22.4255 10.2022 22.515 9.51159C22.555 9.1529 22.5575 8.85291 22.5225 8.63639C22.5147 8.55722 22.4917 8.4805 22.455 8.41074C22.3689 8.3952 22.2807 8.3992 22.1963 8.42248C21.9838 8.46422 21.7125 8.56856 21.405 8.72769C20.7925 9.04334 20.155 9.51028 19.76 9.84419C19.6729 9.91794 19.569 9.9669 19.4584 9.98633C19.3477 10.0058 19.2342 9.99499 19.1287 9.95506C18.1167 9.60961 17.0639 9.4108 16 9.3642C14.7413 9.3955 13.2887 9.76854 12.7925 9.95506C12.6871 9.99499 12.5735 10.0058 12.4629 9.98633C12.3523 9.9669 12.2484 9.91794 12.1613 9.84419C11.6504 9.41507 11.0993 9.04099 10.5162 8.72769C10.2659 8.5905 9.99949 8.4879 9.72375 8.42248C9.63971 8.39939 9.5519 8.39539 9.46625 8.41074C9.42951 8.48048 9.40656 8.55722 9.39875 8.63639C9.36375 8.85291 9.36625 9.1529 9.40625 9.51159C9.49633 10.202 9.65339 10.8812 9.875 11.5385C9.95375 11.7733 9.905 12.0342 9.745 12.2207C9.4 12.6237 8.65 13.8746 8.65 15.3628C8.65 16.4219 8.6925 17.1106 8.86 17.7015C9.0225 18.2714 9.315 18.7971 9.9025 19.4845C10.3 19.9462 10.965 20.3218 11.7088 20.5958C12.3172 20.8204 12.9471 20.9761 13.5875 21.0601C13.7193 21.0748 13.8436 21.1311 13.9439 21.2214C14.0443 21.3117 14.1159 21.4317 14.1493 21.5655C14.1827 21.6994 14.1763 21.8406 14.1308 21.9705C14.0854 22.1004 14.0031 22.2128 13.895 22.2927C13.6888 22.4466 13.5525 22.7231 13.4762 23.0427C13.4369 23.2072 13.4134 23.3754 13.4062 23.5448V23.5696C13.4078 23.735 13.3518 23.8953 13.2486 24.0208C13.1453 24.1463 13.0019 24.2284 12.845 24.2518V24.2518Z" fill="black"/>
<path fill-rule="evenodd" clip-rule="evenodd" d="M16 1.86302C8.43125 1.86302 2.30375 8.22422 2.30375 16.058C2.30375 21.8101 5.6075 26.76 10.3625 28.9865C10.86 29.22 11.3463 29.1274 11.7263 28.83C11.9364 28.6592 12.1058 28.44 12.2212 28.1895C12.3365 27.939 12.3948 27.664 12.3912 27.3861V26.6426L10.695 26.4026C10.6824 26.4008 10.6699 26.3987 10.6575 26.3961C9.7225 26.2057 9.09125 25.8626 8.62875 25.3683C8.24 24.9522 8.0025 24.454 7.80125 24.0313L7.73125 23.884C7.54524 23.4791 7.34213 23.0831 7.1225 22.697C6.95375 22.4179 6.8225 22.2744 6.6925 22.1844C6.3625 21.9562 6.045 21.5688 6.045 21.0849C6.04387 20.9456 6.07245 20.8078 6.12866 20.6815C6.18487 20.5551 6.26731 20.4434 6.37 20.3545C6.56382 20.1943 6.80537 20.1103 7.0525 20.1171C7.33 20.1171 7.59125 20.2058 7.80875 20.3075C8.03125 20.4118 8.2525 20.5501 8.45875 20.6936C8.96125 21.0431 9.45625 21.4566 9.875 21.9666C10.3113 22.4962 10.62 22.8327 11.085 22.9018C11.4675 22.9592 11.8575 22.9605 12.1613 22.9461C12.2035 22.6952 12.2731 22.4501 12.3688 22.2157C11.9978 22.1254 11.6318 22.0139 11.2725 21.8818C10.455 21.5792 9.54375 21.1084 8.93125 20.3949C8.25875 19.6097 7.8425 18.9093 7.61 18.0901C7.38375 17.2919 7.34625 16.4271 7.34625 15.3628C7.34625 13.7324 8.0225 12.3589 8.53 11.6298C8.33502 10.9915 8.19488 10.3363 8.11125 9.67202C8.05586 9.25311 8.05628 8.82822 8.1125 8.40943C8.175 8.02727 8.33125 7.55771 8.7425 7.27467C9.13875 6.99946 9.60375 7.0112 9.96625 7.08163C10.3425 7.15598 10.7338 7.31902 11.0938 7.50554C11.68 7.80814 12.2625 8.21248 12.6988 8.55552C13.4513 8.32465 14.7825 8.02727 15.9862 7.99988H16.0138C17.2188 8.02727 18.49 8.32465 19.2238 8.55421C19.6613 8.21248 20.2425 7.80683 20.8275 7.50554C21.1875 7.31902 21.5775 7.15598 21.955 7.08163C22.3175 7.0112 22.7825 6.99946 23.18 7.27337C23.59 7.55771 23.7475 8.02727 23.8088 8.40943C23.8725 8.80725 23.8575 9.25203 23.8088 9.67202C23.7255 10.3362 23.5858 10.9914 23.3913 11.6298C23.8988 12.3602 24.575 13.7337 24.575 15.3628C24.575 16.4271 24.5375 17.2919 24.3125 18.0888C24.0787 18.9106 23.6625 19.6097 22.99 20.3949C22.3775 21.1084 21.4663 21.5792 20.6488 21.8818C20.2148 22.041 19.7714 22.1704 19.3212 22.2692C19.475 22.7544 19.53 23.147 19.53 23.3727V27.403C19.53 28.0161 19.8038 28.5391 20.1925 28.8443C20.57 29.143 21.055 29.2356 21.5525 29.0087C26.3525 26.8017 29.695 21.8388 29.695 16.0567C29.695 8.22422 23.57 1.86302 16 1.86302ZM12.845 24.2518C12.52 24.3 12.8438 24.2518 12.8438 24.2518H12.84L12.83 24.2544L12.7938 24.2596C12.6081 24.2824 12.4217 24.2985 12.235 24.3079C11.7901 24.3321 11.3441 24.3133 10.9025 24.2518C9.91375 24.1057 9.3125 23.3753 8.92375 22.9005L8.88625 22.8561C8.75915 22.7023 8.62261 22.5572 8.4775 22.4218C8.60625 22.6696 8.74 22.9461 8.88375 23.2435L8.89625 23.2696L8.96 23.4053C9.17875 23.8592 9.3225 24.1618 9.56125 24.4148C9.79375 24.6626 10.1563 24.9026 10.8888 25.0539L13.1313 25.3709C13.2879 25.393 13.4315 25.4737 13.5354 25.598C13.6393 25.7222 13.6965 25.8816 13.6962 26.0465V27.3861C13.6962 28.4295 13.2275 29.3595 12.5087 29.923C12.1314 30.2239 11.6825 30.4115 11.2104 30.4658C10.7384 30.52 10.2611 30.4388 9.83 30.2308C4.6275 27.7956 1 22.3736 1 16.058C1 7.45989 7.72125 0.5 16 0.5C24.2788 0.5 31 7.45989 31 16.058C31 22.4062 27.3263 27.8426 22.0788 30.2569C21.6473 30.4609 21.1709 30.5387 20.7004 30.482C20.2298 30.4252 19.7829 30.2361 19.4075 29.9347C19.0363 29.6365 18.7363 29.2526 18.5312 28.8131C18.326 28.3737 18.2212 27.8906 18.225 27.4017V23.3714C18.225 23.2801 18.1638 22.7531 17.8225 22.0449C17.7754 21.9467 17.7517 21.838 17.7533 21.7282C17.755 21.6184 17.782 21.5107 17.832 21.414C17.882 21.3174 17.9536 21.2348 18.0408 21.1732C18.1279 21.1116 18.228 21.0728 18.3325 21.0601C18.9733 20.9763 19.6037 20.8206 20.2125 20.5958C20.955 20.3218 21.6212 19.9462 22.0175 19.4845C22.6062 18.7984 22.9 18.2714 23.0613 17.7015C23.2288 17.1106 23.2712 16.4232 23.2712 15.3628C23.2712 13.8746 22.5213 12.6237 22.1763 12.2207C22.0979 12.1296 22.0445 12.0182 22.0217 11.8982C21.9988 11.7782 22.0073 11.6539 22.0462 11.5385C22.2684 10.8814 22.4255 10.2022 22.515 9.51159C22.555 9.1529 22.5575 8.85291 22.5225 8.63639C22.5147 8.55722 22.4917 8.4805 22.455 8.41074C22.3689 8.3952 22.2807 8.3992 22.1963 8.42248C21.9838 8.46422 21.7125 8.56856 21.405 8.72769C20.7925 9.04334 20.155 9.51028 19.76 9.84419C19.6729 9.91794 19.569 9.9669 19.4584 9.98633C19.3477 10.0058 19.2342 9.99499 19.1287 9.95506C18.1167 9.60961 17.0639 9.4108 16 9.3642C14.7413 9.3955 13.2887 9.76854 12.7925 9.95506C12.6871 9.99499 12.5735 10.0058 12.4629 9.98633C12.3523 9.9669 12.2484 9.91794 12.1613 9.84419C11.6504 9.41507 11.0993 9.04099 10.5162 8.72769C10.2659 8.5905 9.99949 8.4879 9.72375 8.42248C9.63971 8.39939 9.5519 8.39539 9.46625 8.41074C9.42951 8.48048 9.40656 8.55722 9.39875 8.63639C9.36375 8.85291 9.36625 9.1529 9.40625 9.51159C9.49633 10.202 9.65339 10.8812 9.875 11.5385C9.95375 11.7733 9.905 12.0342 9.745 12.2207C9.4 12.6237 8.65 13.8746 8.65 15.3628C8.65 16.4219 8.6925 17.1106 8.86 17.7015C9.0225 18.2714 9.315 18.7971 9.9025 19.4845C10.3 19.9462 10.965 20.3218 11.7088 20.5958C12.3172 20.8204 12.9471 20.9761 13.5875 21.0601C13.7193 21.0748 13.8436 21.1311 13.9439 21.2214C14.0443 21.3117 14.1159 21.4317 14.1493 21.5655C14.1827 21.6994 14.1763 21.8406 14.1308 21.9705C14.0854 22.1004 14.0031 22.2128 13.895 22.2927C13.6888 22.4466 13.5525 22.7231 13.4762 23.0427C13.4369 23.2072 13.4134 23.3754 13.4062 23.5448V23.5696C13.4078 23.735 13.3518 23.8953 13.2486 24.0208C13.1453 24.1463 13.0019 24.2284 12.845 24.2518V24.2518Z" stroke="black" mask="url(#path-1-outside-1_41_1122)"/>
</svg>
