<svg width="80" height="80" viewBox="0 0 80 80" fill="none" xmlns="http://www.w3.org/2000/svg">
<path d="M44.6213 16.0493C43.1773 15.3584 41.5994 15 40.0016 15C38.4037 15 36.8258 15.3584 35.3818 16.0493L8.57656 28.8743C8.0832 29.1094 7.67021 29.4874 7.39013 29.9601C7.11005 30.4329 6.97552 30.9791 7.00366 31.5293V48.3369C7.00366 49.0734 7.29338 49.7798 7.80907 50.3006C8.32476 50.8215 9.02419 51.1141 9.75349 51.1141C10.4828 51.1141 11.1822 50.8215 11.6979 50.3006C12.2136 49.7798 12.5033 49.0734 12.5033 48.3369V35.8617L18.003 38.6167V53.8912C18.003 54.2566 18.0745 54.6183 18.2132 54.9557C18.3519 55.2931 18.5552 55.5996 18.8114 55.8575L18.9489 55.9908L19.2789 56.2963C21.0025 57.8476 22.8658 59.2329 24.8445 60.4343C28.5183 62.6672 33.8254 65 40.0016 65C46.1777 65 51.4848 62.6672 55.1641 60.4343C57.1428 59.233 59.0061 57.8476 60.7297 56.2963L61.0597 55.9908L61.1862 55.8575H61.1972C61.453 55.5985 61.6557 55.2909 61.7935 54.9525C61.9313 54.6141 62.0015 54.2516 62.0001 53.8857V38.6112L71.4705 33.8677C71.9335 33.6362 72.3225 33.2776 72.593 32.8331C72.8635 32.3885 73.0045 31.8761 72.9999 31.3543C72.9953 30.8326 72.8453 30.3227 72.567 29.8831C72.2887 29.4435 71.8935 29.092 71.4265 28.8688L44.6213 16.0437V16.0493ZM44.7972 47.2371L56.5005 41.3717V52.6582C55.1959 53.7757 53.8036 54.7844 52.3373 55.6742C49.1475 57.6071 44.8247 59.4456 40.0016 59.4456C35.1784 59.4456 30.8611 57.6127 27.6658 55.6742C26.1995 54.7844 24.8072 53.7757 23.5026 52.6582V41.3717L35.2059 47.2371C38.2307 48.7479 41.7724 48.7479 44.7972 47.2371ZM42.2674 21.0704L63.947 31.4405L42.3499 42.2604C41.6199 42.6256 40.8162 42.8156 40.0016 42.8156C39.1869 42.8156 38.3832 42.6256 37.6532 42.2604L16.0561 31.4405L37.7357 21.0704C38.4439 20.7315 39.2178 20.5556 40.0016 20.5556C40.7853 20.5556 41.5592 20.7315 42.2674 21.0704ZM61.1862 55.8631L61.1807 55.8686L61.1862 55.8631Z" fill="black"/>
</svg>
