<svg width="81" height="80" viewBox="0 0 81 80" fill="none" xmlns="http://www.w3.org/2000/svg">
<path d="M46.1359 37.9167C46.1359 35.2333 48.3137 33.0556 50.997 33.0556H55.1637C55.7162 33.0556 56.2461 33.275 56.6368 33.6658C57.0275 34.0565 57.247 34.5864 57.247 35.1389C57.247 35.6914 57.0275 36.2213 56.6368 36.612C56.2461 37.0027 55.7162 37.2222 55.1637 37.2222H50.997C50.8128 37.2222 50.6362 37.2954 50.506 37.4256C50.3757 37.5559 50.3026 37.7325 50.3026 37.9167V42.0833C50.3026 42.4667 50.6137 42.7778 50.997 42.7778H52.3859C55.0692 42.7778 57.247 44.9556 57.247 47.6389V51.8056C57.247 53.0948 56.7349 54.3312 55.8232 55.2429C54.9116 56.1545 53.6752 56.6667 52.3859 56.6667H48.2192C47.6667 56.6667 47.1368 56.4472 46.7461 56.0565C46.3554 55.6658 46.1359 55.1359 46.1359 54.5833C46.1359 54.0308 46.3554 53.5009 46.7461 53.1102C47.1368 52.7195 47.6667 52.5 48.2192 52.5H52.3859C52.5701 52.5 52.7467 52.4268 52.877 52.2966C53.0072 52.1664 53.0804 51.9897 53.0804 51.8056V47.6389C53.0804 47.4547 53.0072 47.2781 52.877 47.1478C52.7467 47.0176 52.5701 46.9444 52.3859 46.9444H50.997C49.7078 46.9444 48.4713 46.4323 47.5597 45.5207C46.6481 44.609 46.1359 43.3726 46.1359 42.0833V37.9167ZM42.6637 35.1389C42.6637 34.5864 42.4442 34.0565 42.0535 33.6658C41.6628 33.275 41.1329 33.0556 40.5804 33.0556C40.0278 33.0556 39.4979 33.275 39.1072 33.6658C38.7165 34.0565 38.497 34.5864 38.497 35.1389V51.8056C38.497 51.9897 38.4239 52.1664 38.2936 52.2966C38.1634 52.4268 37.9868 52.5 37.8026 52.5H34.3304C33.7778 52.5 33.2479 52.7195 32.8572 53.1102C32.4665 53.5009 32.247 54.0308 32.247 54.5833C32.247 55.1359 32.4665 55.6658 32.8572 56.0565C33.2479 56.4472 33.7778 56.6667 34.3304 56.6667H37.8026C39.0918 56.6667 40.3283 56.1545 41.2399 55.2429C42.1515 54.3312 42.6637 53.0948 42.6637 51.8056V35.1389ZM15.5804 24.0278V55.9722C15.5804 58.3665 16.5315 60.6628 18.2245 62.3558C19.9176 64.0489 22.2138 65 24.6081 65H56.5526C58.9469 65 61.2431 64.0489 62.9362 62.3558C64.6292 60.6628 65.5804 58.3665 65.5804 55.9722V24.0278C65.5803 21.6335 64.6292 19.3372 62.9362 17.6442C61.2431 15.9511 58.9469 15 56.5526 15H24.6081C22.2138 15 19.9176 15.9511 18.2245 17.6442C16.5315 19.3372 15.5804 21.6335 15.5804 24.0278ZM24.6081 19.1667H56.5526C59.2359 19.1667 61.4137 21.3444 61.4137 24.0278V55.9722C61.4137 57.2615 60.9015 58.4979 59.9899 59.4095C59.0783 60.3212 57.8418 60.8333 56.5526 60.8333H24.6081C23.3189 60.8333 22.0824 60.3212 21.1708 59.4095C20.2592 58.4979 19.747 57.2615 19.747 55.9722V24.0278C19.747 21.3444 21.9248 19.1667 24.6081 19.1667Z" fill="black"/>
</svg>
