<svg width="30" height="30" viewBox="0 0 30 30" fill="none" xmlns="http://www.w3.org/2000/svg">
<path d="M27 24.375H24V10.7031L15 16.5625L6 10.7031V24.375H3V5.625H4.8L15 12.2656L25.2 5.625H27M27 2.5H3C1.335 2.5 0 3.89062 0 5.625V24.375C0 25.2038 0.31607 25.9987 0.87868 26.5847C1.44129 27.1708 2.20435 27.5 3 27.5H27C27.7956 27.5 28.5587 27.1708 29.1213 26.5847C29.6839 25.9987 30 25.2038 30 24.375V5.625C30 4.7962 29.6839 4.00134 29.1213 3.41529C28.5587 2.82924 27.7956 2.5 27 2.5V2.5Z" fill="black"/>
</svg>
