<svg width="81" height="80" viewBox="0 0 81 80" fill="none" xmlns="http://www.w3.org/2000/svg">
<path d="M34.848 22.1429H38.4194M29.4909 27.5V18.5714C29.4909 17.6242 29.8671 16.7158 30.5369 16.046C31.2067 15.3763 32.1151 15 33.0623 15H47.348C48.2952 15 49.2036 15.3763 49.8734 16.046C50.5431 16.7158 50.9194 17.6242 50.9194 18.5714V36.4286C50.9194 37.3758 50.5431 38.2842 49.8734 38.954C49.2036 39.6237 48.2952 40 47.348 40H33.0623C32.1151 40 31.2067 40.3763 30.5369 41.046C29.8671 41.7158 29.4909 42.6242 29.4909 43.5714V61.4286C29.4909 62.3758 29.8671 63.2842 30.5369 63.954C31.2067 64.6237 32.1151 65 33.0623 65H47.348C48.2952 65 49.2036 64.6237 49.8734 63.954C50.5431 63.2842 50.9194 62.3758 50.9194 61.4286V52.5M41.9909 29.2857H18.7766C17.8294 29.2857 16.921 29.662 16.2512 30.3318C15.5814 31.0015 15.2051 31.9099 15.2051 32.8571V50.7143C15.2051 51.6615 15.5814 52.5699 16.2512 53.2397C16.921 53.9094 17.8294 54.2857 18.7766 54.2857H29.4909M38.4194 50.7143H61.6337C62.5809 50.7143 63.4893 50.338 64.1591 49.6682C64.8289 48.9985 65.2051 48.0901 65.2051 47.1429V29.2857C65.2051 28.3385 64.8289 27.4301 64.1591 26.7603C63.4893 26.0906 62.5809 25.7143 61.6337 25.7143H50.9194M41.9909 57.8571H45.5623" stroke="black" stroke-width="4"/>
</svg>
