<svg width="30" height="31" viewBox="0 0 30 31" fill="none" xmlns="http://www.w3.org/2000/svg">
<path d="M25.4906 3H4.50938C3.4 3 2.5 3.9 2.5 5.00938V25.9906C2.5 27.1 3.4 28 4.50938 28H25.4906C26.6 28 27.5 27.1 27.5 25.9906V5.00938C27.5 3.9 26.6 3 25.4906 3V3ZM25.4906 26C11.4969 25.9969 4.5 25.9938 4.5 25.9906C4.50313 11.9969 4.50625 5 4.50938 5C18.5031 5.00313 25.5 5.00625 25.5 5.00938C25.4969 19.0031 25.4938 26 25.4906 26ZM6.20625 12.3719H9.91562V24.3031H6.20625V12.3719ZM8.0625 10.7406C9.24688 10.7406 10.2125 9.77812 10.2125 8.59062C10.2125 8.30828 10.1569 8.02871 10.0488 7.76786C9.94079 7.50701 9.78243 7.26999 9.58278 7.07035C9.38313 6.8707 9.14612 6.71233 8.88527 6.60428C8.62442 6.49624 8.34484 6.44063 8.0625 6.44063C7.78016 6.44063 7.50058 6.49624 7.23973 6.60428C6.97888 6.71233 6.74187 6.8707 6.54222 7.07035C6.34257 7.26999 6.18421 7.50701 6.07616 7.76786C5.96811 8.02871 5.9125 8.30828 5.9125 8.59062C5.90937 9.77812 6.87188 10.7406 8.0625 10.7406ZM15.9469 18.4C15.9469 16.8437 16.2437 15.3375 18.1719 15.3375C20.0719 15.3375 20.1 17.1156 20.1 18.5V24.3031H23.8062V17.7594C23.8062 14.5469 23.1125 12.075 19.3594 12.075C17.5562 12.075 16.3469 13.0656 15.85 14.0031H15.8V12.3719H12.2406V24.3031H15.9469V18.4Z" fill="black"/>
</svg>
